<svg xmlns="http://www.w3.org/2000/svg" viewBox="0 0 750 471">
  <rect width="750" height="471" rx="40" fill="#1A1F71"/>
  <path d="M278 334l33-198h53l-33 198h-53zm243-193c-10-4-27-8-47-8-52 0-89 26-89 64-1 28 26 43 46 52 21 9 27 15 27 23 0 12-16 18-31 18-21 0-32-3-49-10l-7-3-7 43c12 5 34 10 57 10 55 0 91-26 91-66 0-22-14-39-44-52-18-8-30-14-30-23 0-8 10-16 31-16 18 0 31 4 41 8l5 2 7-42zm135-5h-40c-13 0-22 3-28 16l-79 182h56s9-24 11-29h68c2 7 6 29 6 29h49l-43-198zm-66 127c4-11 21-55 21-55s4-12 7-19l3 17s9 44 11 57h-42zm-371-127l-51 135-6-28c-10-30-40-63-74-79l47 170h57l85-198h-58z" fill="#fff"/>
  <path d="M208 136h-87l-1 4c68 16 113 56 131 104l-19-91c-3-13-12-17-24-17z" fill="#F9A533"/>
</svg>